Disc 4 Of 9

16.Private Enterprise                    : 720x556 33m 46s
17.The Strike                            : 720x544 59m 05s
18.More Bad News                         : 720x554 50m 56s 
19.Mr.Jolly Lives Next Door              : 720x556 49m 36s

Note. Video/Audio Bitrate varies slightly in all 4 clips

Format                                   : MPEG-4
File size                                : 1.45 GiB
Duration                                 : 3h 13mn 25s
Overall bit rate mode                    : Variable
Overall bit rate                         : 1 079 Kbps

Video
Format settings, CABAC                   : Yes
Format settings, ReFrames                : 1 frame
Codec ID                                 : avc1
Duration                                 : 3h 13mn 25s
Bit rate mode                            : Variable
Bit rate                                 : 1 002 Kbps
Frame rate mode                          : Constant
Frame rate                               : 25.000 fps
Bit depth                                : 8 bits
Scan type                                : Progressive
Bits/(Pixel*Frame)                       : 0.100
Stream size                              : 1.38 GiB (93%)
Writing library                          : x264 core

Audio
Format                                   : AAC
Duration                                 : 3h 13mn 25s
Bit rate mode                            : Variable
Bit rate                                 : 73.6 Kbps
Maximum bit rate                         : 87.0 Kbps
Channel(s)                               : 2 channels
Channel positions                        : Front: L R
Sampling rate                            : 48.0 KHz
Compression mode                         : Lossy
Stream size                              : 102 MiB (7%)
Language                                 : English
Subtitles                                : None

IMDB.  http://www.imdb.com/title/tt0083402/

Screens.  http://bayimg.com/ManfdaAEc

          http://bayimg.com/mANfFAAEC

          http://bayimg.com/manFHaAEC

          http://bayimg.com/mANfiaaEC  

Enjoy.